<svg width="40" height="40" viewBox="0 0 40 40" fill="none" xmlns="http://www.w3.org/2000/svg">
<path d="M31.8047 11.8092V35.6627C31.8047 36.838 32.7609 37.7941 33.9362 37.7941H37.8684C39.0437 37.7941 39.9999 36.838 39.9999 35.6627V29.9847C39.9999 29.6611 39.7376 29.3988 39.414 29.3988C39.0904 29.3988 38.828 29.6611 38.828 29.9847V35.6627C38.828 36.1918 38.3976 36.6223 37.8684 36.6223H33.9362C33.4071 36.6223 32.9766 36.1918 32.9766 35.6627V11.8092C32.9766 11.2801 33.407 10.8496 33.9362 10.8496H37.8684C38.3975 10.8496 38.828 11.2801 38.828 11.8092V27.6409C38.828 27.9645 39.0904 28.2269 39.414 28.2269C39.7376 28.2269 39.9999 27.9645 39.9999 27.6409V11.8092C39.9999 10.634 39.0437 9.67773 37.8684 9.67773H33.9362C32.7608 9.67773 31.8047 10.634 31.8047 11.8092Z" fill="white"/>
<path d="M2.13148 37.7942H6.06375C7.23906 37.7942 8.19523 36.838 8.19523 35.6627V23.3454C8.19523 22.17 7.23906 21.2139 6.06375 21.2139H2.13148C0.956172 21.2138 0 22.17 0 23.3454V35.6628C0 36.838 0.956172 37.7942 2.13148 37.7942ZM1.17188 23.3454C1.17188 22.8162 1.60234 22.3857 2.13148 22.3857H6.06375C6.59289 22.3857 7.02336 22.8162 7.02336 23.3454V35.6628C7.02336 36.1919 6.59289 36.6224 6.06375 36.6224H2.13148C1.60242 36.6224 1.17188 36.1919 1.17188 35.6628V23.3454Z" fill="white"/>
<path d="M11.1875 24.7297C10.8639 24.7297 10.6016 24.992 10.6016 25.3156V35.6629C10.6016 36.8382 11.5577 37.7944 12.733 37.7944H16.6653C17.8406 37.7944 18.7968 36.8382 18.7968 35.6629V19.5001C18.7968 18.3248 17.8406 17.3687 16.6653 17.3687H12.733C11.5577 17.3687 10.6016 18.3248 10.6016 19.5001V22.9719C10.6016 23.2954 10.8639 23.5578 11.1875 23.5578C11.5111 23.5578 11.7734 23.2954 11.7734 22.9719V19.5001C11.7734 18.9711 12.2039 18.5405 12.733 18.5405H16.6653C17.1945 18.5405 17.6249 18.971 17.6249 19.5001V35.6629C17.6249 36.192 17.1945 36.6225 16.6653 36.6225H12.733C12.2039 36.6225 11.7734 36.192 11.7734 35.6629V25.3156C11.7734 24.992 11.5111 24.7297 11.1875 24.7297Z" fill="white"/>
<path d="M27.2669 37.7945C28.4422 37.7945 29.3984 36.8383 29.3984 35.663V15.6549C29.3984 14.4796 28.4422 13.5234 27.2669 13.5234H23.3346C22.1593 13.5234 21.2031 14.4796 21.2031 15.6549V35.663C21.2031 36.8384 22.1593 37.7945 23.3346 37.7945H27.2669V37.7945ZM22.3749 35.663V15.6549C22.3749 15.1258 22.8054 14.6953 23.3345 14.6953H27.2668C27.7959 14.6953 28.2264 15.1258 28.2264 15.6549V35.663C28.2264 36.1922 27.7959 36.6227 27.2668 36.6227H23.3345C22.8054 36.6226 22.3749 36.1921 22.3749 35.663Z" fill="white"/>
</svg>
