<svg width="20" height="20" viewBox="0 0 20 20" fill="none" xmlns="http://www.w3.org/2000/svg">
<path d="M5.72446 19.6806C2.74315 19.6806 0.314941 17.2555 0.314941 14.2711V5.72531C0.314941 2.744 2.74011 0.315796 5.72446 0.315796H14.2703C17.2516 0.315796 19.6798 2.74096 19.6798 5.72531V14.2711C19.6798 17.2524 17.2546 19.6806 14.2703 19.6806H5.72446Z" fill="url(#paint0_radial)"/>
<path d="M14.007 0H5.99301C2.68348 0 0 2.68348 0 5.99301V14.007C0 17.3165 2.68348 20 5.99301 20H14.007C17.3165 20 20 17.3165 20 14.007V5.98997C20 2.68044 17.3165 0 14.007 0ZM19.0792 14.007C19.0792 16.8029 16.8029 19.0792 14.007 19.0792H5.99301C3.19708 19.0792 0.920833 16.8029 0.920833 14.007V5.98997C0.920833 3.19404 3.19708 0.917793 5.99301 0.917793H14.007C16.8029 0.917793 19.0792 3.19404 19.0792 5.98997V14.007Z" fill="url(#paint1_linear)"/>
<path d="M14.0667 13.8398C14.2886 13.8398 14.4831 13.7669 14.6442 13.621L11.8422 10.819C11.7753 10.8676 11.7084 10.9132 11.6477 10.9588C11.438 11.1138 11.2678 11.2323 11.1371 11.3204C11.0064 11.4055 10.8332 11.4967 10.6144 11.5848C10.3986 11.676 10.195 11.7185 10.0066 11.7185H10.0005C9.81208 11.7185 9.6115 11.6729 9.39269 11.5848C9.17692 11.4936 9.00065 11.4055 8.86998 11.3204C8.7393 11.2353 8.56911 11.1138 8.35942 10.9588C8.30167 10.9162 8.23481 10.8676 8.16492 10.819L5.36292 13.621C5.52702 13.7669 5.71848 13.8398 5.94033 13.8398H14.0667Z" fill="url(#paint2_linear)"/>
<path d="M5.61956 9.05634C5.4098 8.91655 5.22435 8.75548 5.06323 8.57617V12.8369L7.53175 10.3692C7.03926 10.0258 6.40085 9.58818 5.61956 9.05634Z" fill="url(#paint3_linear)"/>
<path d="M14.3996 9.05634C13.6487 9.56387 13.0103 10.0015 12.4813 10.3692L14.9498 12.8369V8.57617C14.7918 8.75244 14.6094 8.91351 14.3996 9.05634Z" fill="url(#paint4_linear)"/>
<path d="M14.0679 6.07202H5.9476C5.66497 6.07202 5.44616 6.16623 5.29421 6.35769C5.14226 6.54915 5.06628 6.78924 5.06628 7.07491C5.06628 7.30588 5.16657 7.55812 5.37019 7.8286C5.5738 8.09908 5.78653 8.31181 6.01446 8.46681C6.13906 8.55494 6.5159 8.8163 7.14498 9.25392C7.48535 9.48793 7.78014 9.69459 8.03238 9.87085C8.24815 10.0228 8.43657 10.1535 8.58852 10.2599C8.60675 10.272 8.6341 10.2933 8.67057 10.3176C8.71008 10.3449 8.76174 10.3814 8.82252 10.427C8.94105 10.5121 9.04133 10.582 9.12035 10.6367C9.19936 10.6914 9.29357 10.7491 9.40602 10.816C9.51846 10.8829 9.62483 10.9315 9.72208 10.9649C9.82236 10.9983 9.91353 11.0135 9.99863 11.0135H10.0047H10.0108C10.0959 11.0135 10.187 10.9983 10.2873 10.9649C10.3876 10.9315 10.491 10.8829 10.6034 10.816C10.7158 10.7491 10.81 10.6914 10.8891 10.6367C10.9681 10.582 11.0684 10.5121 11.1869 10.427C11.2477 10.3814 11.2993 10.3449 11.3388 10.3176C11.3753 10.2902 11.4027 10.272 11.4209 10.2599C11.5394 10.1778 11.7278 10.0471 11.9801 9.87085C12.439 9.55175 13.1106 9.08374 14.0041 8.46681C14.2715 8.27838 14.4964 8.05349 14.6757 7.78909C14.855 7.52469 14.9462 7.2451 14.9462 6.95639C14.9462 6.71326 14.858 6.50661 14.6848 6.33338C14.5146 6.15711 14.308 6.07202 14.0679 6.07202Z" fill="url(#paint5_linear)"/>
<defs>
<radialGradient id="paint0_radial" cx="0" cy="0" r="1" gradientUnits="userSpaceOnUse" gradientTransform="translate(9.99929 9.99834) scale(9.68213)">
<stop stop-color="#112433"/>
<stop offset="0.9711" stop-color="#081017"/>
</radialGradient>
<linearGradient id="paint1_linear" x1="1.75587" y1="18.243" x2="18.2447" y2="1.7542" gradientUnits="userSpaceOnUse">
<stop offset="0.1101" stop-color="#D9B95D"/>
<stop offset="0.4946" stop-color="#FFE18F"/>
<stop offset="0.8881" stop-color="#CCA643"/>
</linearGradient>
<linearGradient id="paint2_linear" x1="5.36626" y1="12.3301" x2="14.6452" y2="12.3301" gradientUnits="userSpaceOnUse">
<stop offset="0.1101" stop-color="#D9B95D"/>
<stop offset="0.4946" stop-color="#FFE18F"/>
<stop offset="0.8881" stop-color="#CCA643"/>
</linearGradient>
<linearGradient id="paint3_linear" x1="5.06323" y1="10.7076" x2="7.53308" y2="10.7076" gradientUnits="userSpaceOnUse">
<stop offset="0.1101" stop-color="#D9B95D"/>
<stop offset="0.4946" stop-color="#FFE18F"/>
<stop offset="0.8881" stop-color="#CCA643"/>
</linearGradient>
<linearGradient id="paint4_linear" x1="12.4824" y1="10.7077" x2="14.9513" y2="10.7077" gradientUnits="userSpaceOnUse">
<stop offset="0.1101" stop-color="#D9B95D"/>
<stop offset="0.4946" stop-color="#FFE18F"/>
<stop offset="0.8881" stop-color="#CCA643"/>
</linearGradient>
<linearGradient id="paint5_linear" x1="5.06337" y1="8.54354" x2="14.9507" y2="8.54354" gradientUnits="userSpaceOnUse">
<stop offset="0.1101" stop-color="#D9B95D"/>
<stop offset="0.4946" stop-color="#FFE18F"/>
<stop offset="0.8881" stop-color="#CCA643"/>
</linearGradient>
</defs>
</svg>
