<svg width="40" height="40" viewBox="0 0 40 40" fill="none" xmlns="http://www.w3.org/2000/svg">
<path d="M39.8199 32.2963L27.0274 19.5037L36.6283 9.90281C36.6926 9.83844 36.7383 9.76266 36.7664 9.68211C36.7674 9.67945 36.7688 9.67703 36.7697 9.67438L38.4245 4.98672C38.4246 4.98648 38.4247 4.98625 38.4248 4.98602L39.8728 0.883594C39.9481 0.670703 39.8942 0.433594 39.7346 0.273906C39.5749 0.114219 39.3377 0.0604687 39.1249 0.135625L35.0224 1.58375C35.0224 1.58375 35.0223 1.58383 35.0222 1.58383L30.334 3.23875C30.3313 3.23977 30.3288 3.24117 30.326 3.24219C30.2456 3.27031 30.1698 3.31594 30.1055 3.38023L24.9052 8.58055C24.6763 8.80945 24.6763 9.1807 24.9052 9.40953C25.1342 9.63844 25.5053 9.63852 25.7342 9.40953L30.52 4.62375L35.3845 9.4882L22.7821 22.0908L19.108 25.7649C19.1079 25.765 19.1078 25.7652 19.1078 25.7652L12.4867 32.3863L7.62237 27.5219L24.0739 11.0703C24.3028 10.8414 24.3028 10.4702 24.0739 10.2413C23.8449 10.0123 23.4737 10.0124 23.2448 10.2413L20.5048 12.9813L18.7523 11.2288C18.7521 11.2286 18.7521 11.2285 18.7519 11.2284C18.7517 11.2282 18.7517 11.2281 18.7515 11.228L16.2493 8.72578C16.2492 8.72563 16.2491 8.72547 16.2489 8.72539C16.2488 8.72523 16.2487 8.72516 16.2485 8.725L13.7468 6.22328C13.7466 6.22305 13.7464 6.22273 13.7461 6.2225C13.7459 6.22227 13.7456 6.22203 13.7453 6.2218L7.69534 0.171797C7.58534 0.0617187 7.4362 0 7.28073 0C7.12526 0 6.9762 0.0617187 6.86612 0.171719L0.190498 6.84742C-0.0384082 7.07633 -0.0384082 7.44758 0.190498 7.67641L2.75394 10.2398C2.98284 10.4688 3.35401 10.4688 3.58308 10.2398C3.81198 10.0109 3.81198 9.63969 3.58308 9.41086L1.43409 7.26188L7.28065 1.41531L9.99948 4.13414L8.36347 5.77031C8.13448 5.99922 8.13448 6.37047 8.36347 6.5993C8.478 6.71375 8.62808 6.77102 8.77808 6.77102C8.92808 6.77102 9.07815 6.71383 9.19268 6.5993L10.8288 4.9632L12.5026 6.63703L10.0375 9.10211C9.80862 9.33102 9.80862 9.70227 10.0375 9.93109C10.1521 10.0456 10.3021 10.1028 10.4521 10.1028C10.6021 10.1028 10.7522 10.0456 10.8667 9.93109L13.3318 7.46609L15.0057 9.13992L13.3695 10.776C13.1405 11.0049 13.1405 11.3761 13.3694 11.605C13.4839 11.7195 13.6339 11.7767 13.784 11.7767C13.934 11.7767 14.0841 11.7195 14.1985 11.605L15.8347 9.96891L17.5085 11.6427L15.0435 14.1078C14.8146 14.3368 14.8146 14.708 15.0435 14.9368C15.158 15.0512 15.3081 15.1085 15.4581 15.1085C15.6081 15.1085 15.7582 15.0513 15.8727 14.9368L18.3377 12.4718L19.6761 13.8102L18.9278 14.5586L13.8295 19.6569L5.25026 11.078C5.0212 10.8491 4.65011 10.8491 4.4212 11.078C4.19229 11.3069 4.19229 11.6781 4.4212 11.907L13.0001 20.4859L0.749326 32.7367C0.27167 33.2143 0.00854492 33.8494 0.00854492 34.5249C0.00854492 35.2005 0.271592 35.8355 0.749248 36.3131L3.69542 39.2592C4.17308 39.7369 4.80815 40 5.4837 40C6.15917 40 6.79433 39.7369 7.2719 39.2592L9.82104 36.7102C9.82128 36.7099 9.82151 36.7096 9.82175 36.7094L12.9013 33.6299L19.5226 27.0086L22.7918 30.2778C23.0209 30.5067 23.392 30.5067 23.6209 30.2778C23.8498 30.0489 23.8498 29.6777 23.6209 29.4488L20.3516 26.1796L23.5694 22.9617L26.1982 20.333L27.5196 21.6544L25.8835 23.2905C25.6546 23.5195 25.6546 23.8907 25.8835 24.1196C25.998 24.2341 26.1481 24.2913 26.2981 24.2913C26.4481 24.2913 26.5982 24.2341 26.7127 24.1196L28.3488 22.4835L30.0226 24.1573L27.5575 26.6224C27.3286 26.8513 27.3286 27.2226 27.5575 27.4515C27.6721 27.5659 27.8221 27.6232 27.9721 27.6232C28.1221 27.6232 28.2722 27.566 28.3867 27.4515L30.8518 24.9864L32.5257 26.6602L30.8895 28.2964C30.6606 28.5253 30.6606 28.8966 30.8895 29.1254C31.004 29.2398 31.1541 29.2971 31.3041 29.2971C31.4541 29.2971 31.6042 29.2399 31.7187 29.1254L33.3548 27.4893L35.0286 29.1631L32.5635 31.6282C32.3346 31.8571 32.3346 32.2284 32.5635 32.4573C32.6781 32.5717 32.8282 32.629 32.9781 32.629C33.1282 32.629 33.2782 32.5717 33.3928 32.4573L35.8578 29.9922L38.5767 32.7111L32.7298 38.5578L25.3261 31.1541C25.0971 30.9252 24.726 30.9252 24.4971 31.1541C24.2682 31.383 24.2682 31.7543 24.4971 31.9831L32.3153 39.8014C32.4298 39.9159 32.5799 39.9731 32.7299 39.9731C32.8799 39.9731 33.0299 39.9159 33.1445 39.8014L39.8202 33.1257C39.9301 33.0158 39.9918 32.8666 39.9918 32.7112C39.9916 32.5553 39.9299 32.4062 39.8199 32.2963ZM38.3592 1.64937L37.6288 3.71867L36.2899 2.37984L38.3592 1.64937ZM31.6016 4.03484L35.0645 2.81242L37.1963 4.94414L35.9739 8.40703L31.6016 4.03484ZM6.44276 38.4302C6.18659 38.6865 5.84597 38.8276 5.4837 38.8276C5.12136 38.8276 4.78073 38.6865 4.52464 38.4302L1.57839 35.4841C1.32222 35.2278 1.18112 34.8873 1.18112 34.5249C1.18112 34.1627 1.32222 33.822 1.57847 33.5659L3.71292 31.4313L8.57745 36.2959L6.44276 38.4302ZM9.40644 35.4666L4.5419 30.6021L6.79315 28.3509L11.6577 33.2154L9.40644 35.4666Z" fill="white"/>
</svg>
