<svg width="40" height="40" viewBox="0 0 40 40" fill="none" xmlns="http://www.w3.org/2000/svg">
<path d="M39.1318 18.2064C39.9192 17.4391 40.1971 16.3129 39.8575 15.2661C39.5171 14.2192 38.6304 13.4719 37.5411 13.3134L27.8559 11.9061C27.4434 11.846 27.087 11.5873 26.9028 11.2132L22.5728 2.4371C22.0866 1.45111 21.0998 0.838379 20.0001 0.838379C18.9012 0.838379 17.9144 1.45111 17.4282 2.4371L13.0974 11.2132C12.9132 11.5873 12.5559 11.846 12.1434 11.9061L2.45823 13.3142C1.36972 13.4719 0.483057 14.2192 0.142649 15.2661C-0.196959 16.3129 0.080975 17.4391 0.86832 18.2064L7.87593 25.037C8.17469 25.3286 8.31165 25.7483 8.24117 26.1584L6.58718 35.8043C6.40136 36.888 6.83788 37.9621 7.72775 38.6093C8.61682 39.2573 9.77421 39.3414 10.749 38.828L19.4106 34.2737C19.7798 34.0799 20.2203 34.0799 20.5896 34.2737L29.252 38.828C29.6749 39.0506 30.133 39.1604 30.5888 39.1604C31.1807 39.1604 31.7702 38.9753 32.2732 38.6093C33.1631 37.9621 33.5996 36.888 33.4138 35.8043L31.759 26.1592C31.6885 25.7483 31.8255 25.3294 32.1242 25.0378L39.1318 18.2064ZM30.1811 26.4299L31.8351 36.0751C31.9184 36.5605 31.7302 37.0242 31.3313 37.3142C30.9316 37.6033 30.4342 37.6385 29.9977 37.4111L21.3353 32.856C20.918 32.6373 20.4582 32.5268 20.0001 32.5268C19.5419 32.5268 19.083 32.6373 18.6649 32.8568L10.0041 37.4111C9.56596 37.6385 9.06856 37.6033 8.66968 37.3142C8.2708 37.0242 8.08338 36.5613 8.16588 36.0751L9.81986 26.4299C9.97925 25.4992 9.67088 24.5492 8.99487 23.8908L1.98646 17.0594C1.63324 16.715 1.51309 16.2296 1.66608 15.7611C1.81826 15.2917 2.20032 14.9697 2.6881 14.8985L12.3725 13.4912C13.3072 13.3558 14.1154 12.7695 14.5327 11.9221L18.8635 3.14595C19.0814 2.70382 19.5067 2.4403 19.9993 2.4403C20.4927 2.4403 20.9172 2.70382 21.1358 3.14595L25.4666 11.9221C25.8839 12.7695 26.6913 13.3558 27.626 13.4912L37.3113 14.8985C37.799 14.9697 38.1811 15.2917 38.3333 15.7611C38.4855 16.2296 38.3661 16.715 38.0129 17.0594L31.0053 23.89C30.3293 24.5492 30.0209 25.4984 30.1811 26.4299Z" fill="white"/>
</svg>
