<svg width="30" height="30" viewBox="0 0 30 30" fill="none" xmlns="http://www.w3.org/2000/svg">
<path d="M-6.17262e-07 15C-2.76883e-07 23.2715 6.72914 30 15 30C23.2709 30 30 23.2715 30 15C30 6.7285 23.2709 -1.0805e-06 15 -6.96469e-07C6.72914 -3.12443e-07 -9.57641e-07 6.7285 -6.17262e-07 15ZM15.5255 9.03685L21.1505 17.7868C21.217 17.8894 21.25 18.0078 21.25 18.125C21.25 18.2275 21.2244 18.3313 21.1737 18.424C21.0639 18.6255 20.8539 18.75 20.625 18.75L9.375 18.75C9.14613 18.75 8.93613 18.6255 8.82627 18.424C8.71764 18.2263 8.72432 17.9785 8.84947 17.7868L14.4745 9.03686C14.5892 8.85861 14.7876 8.74998 15 8.74998C15.2124 8.74998 15.4107 8.85861 15.5255 9.03685Z" fill="url(#paint0_linear)"/>
<defs>
<linearGradient id="paint0_linear" x1="-12.351" y1="30" x2="-12.351" y2="-0.454545" gradientUnits="userSpaceOnUse">
<stop offset="0.0179986" stop-color="#A26E1A"/>
<stop offset="0.51627" stop-color="#FFFFCC"/>
<stop offset="0.970653" stop-color="#AB611E"/>
</linearGradient>
</defs>
</svg>
