<svg width="40" height="40" viewBox="0 0 40 40" fill="none" xmlns="http://www.w3.org/2000/svg">
<path d="M37.0113 31.0332L30.496 28.2112C30.3427 28.1345 30.1727 27.9472 30.0267 27.6972L34.3767 27.6938C34.4527 27.7012 36.246 27.8652 37.684 27.2472C38.2287 27.0125 38.634 26.5492 38.7967 25.9758C38.9607 25.3972 38.8567 24.7845 38.5127 24.2938C37.2693 22.5245 34.3673 17.9012 34.2767 13.2118C34.2747 13.1312 34.012 5.1565 26.1367 5.09184C24.9773 5.10117 23.9053 5.29784 22.93 5.6605C22.7173 5.1185 22.404 4.55317 21.938 4.02117C20.5693 2.4585 18.3473 1.6665 15.3333 1.6665C12.3193 1.6665 10.0973 2.4585 8.728 4.01984C7.14933 5.8205 7.296 8.00384 7.33333 8.36984V11.9158C6.90667 12.4018 6.66667 13.0238 6.66667 13.6658V16.3325C6.66667 17.1438 7.03533 17.9005 7.66467 18.4052C8.27533 20.8232 9.55333 22.6452 10 23.2298V25.4358C10 26.0812 9.648 26.6732 9.082 26.9825L3.13467 30.2265C1.20067 31.2825 0 33.3052 0 35.5078V38.3332H29.3333H30.6667H40V35.8685C40 33.8072 38.8547 31.9552 37.0113 31.0332ZM29.3333 36.9998H1.33333V35.5078C1.33333 33.7938 2.268 32.2185 3.77267 31.3985L9.72 28.1545C10.7153 27.6112 11.3333 26.5692 11.3333 25.4365V22.7572L11.178 22.5718C11.162 22.5525 9.528 20.5758 8.90467 17.8618L8.844 17.5978L8.61667 17.4512C8.23067 17.2018 8 16.7838 8 16.3332V13.6665C8 13.2925 8.15867 12.9438 8.44667 12.6832L8.66667 12.4852V8.33317L8.66067 8.24584C8.65867 8.22784 8.432 6.37984 9.73067 4.8985C10.8353 3.6385 12.7207 2.99984 15.3333 2.99984C17.9367 2.99984 19.818 3.63384 20.924 4.88517C21.474 5.5065 21.7507 6.2005 21.8887 6.7965C21.8993 6.84317 21.9093 6.88917 21.9187 6.93517C21.928 6.9825 21.938 7.02984 21.9453 7.07517C21.954 7.12717 21.9613 7.1765 21.9687 7.22584C21.974 7.26117 21.9793 7.29717 21.9833 7.33117C21.9933 7.41384 22.0013 7.49384 22.0067 7.56784C22.0073 7.57384 22.0073 7.57917 22.0073 7.58517C22.012 7.65717 22.0153 7.72517 22.0173 7.78717C22.0173 7.79917 22.0173 7.80917 22.018 7.82117C22.0193 7.8765 22.0193 7.92917 22.0187 7.97517C22.0187 7.98184 22.0187 7.9885 22.0187 7.99517C22.016 8.15184 22.0053 8.24517 22.0053 8.24717L22 12.4852L22.22 12.6838C22.508 12.9438 22.6667 13.2925 22.6667 13.6665V16.3332C22.6667 16.9152 22.2853 17.4245 21.7187 17.5992L21.3867 17.7012L21.28 18.0312C20.834 19.4185 20.1987 20.6998 19.3907 21.8398C19.1927 22.1205 19 22.3692 18.8327 22.5592L18.6667 22.7485V25.4985C18.6667 25.6672 18.6833 25.8325 18.7093 25.9952C18.7147 26.0298 18.724 26.0632 18.7307 26.0978C18.7567 26.2318 18.7913 26.3632 18.834 26.4912C18.844 26.5212 18.8547 26.5498 18.866 26.5798C18.918 26.7192 18.9787 26.8538 19.0493 26.9832C19.0573 26.9978 19.0647 27.0132 19.0727 27.0278C19.1693 27.1985 19.2807 27.3605 19.4087 27.5098L19.5607 27.6972H19.5867C19.8153 27.9225 20.078 28.1185 20.3767 28.2678L26.7453 31.4518C28.342 32.2492 29.3333 33.8532 29.3333 35.6378V36.9998ZM38.6667 36.9998H30.6667V35.6378C30.6667 33.3452 29.3927 31.2845 27.3427 30.2592L22.7707 27.9725C22.8833 27.7152 22.898 27.4205 22.7993 27.1365C22.636 26.6665 22.2093 26.3632 21.7127 26.3632H20.2347C20.204 26.3092 20.184 26.2498 20.1593 26.1925C20.126 26.1158 20.0867 26.0405 20.0647 25.9598C20.024 25.8118 20 25.6572 20 25.4985V23.2445C20.1527 23.0578 20.3133 22.8452 20.4793 22.6105C21.3053 21.4438 21.9673 20.1452 22.4487 18.7445C23.3893 18.3132 24 17.3832 24 16.3332V13.6665C24 13.0245 23.76 12.4025 23.3333 11.9165V8.3705C23.3507 8.20384 23.388 7.65784 23.2773 6.9445C24.136 6.60717 25.098 6.43317 26.1373 6.4245C32.698 6.4785 32.9373 12.9652 32.944 13.2385C33.042 18.2938 36.108 23.1898 37.422 25.0598C37.5347 25.2198 37.5687 25.4212 37.5147 25.6112C37.484 25.7205 37.396 25.9192 37.158 26.0212C36.038 26.5032 34.5187 26.3665 34.4407 26.3632H29.852C29.4233 26.3632 29.0327 26.5812 28.8067 26.9458C28.5813 27.3092 28.56 27.7532 28.7493 28.1345C28.958 28.5552 29.3267 29.1172 29.9327 29.4192L36.4307 32.2338C37.81 32.9305 38.6667 34.3212 38.6667 35.8685V36.9998Z" fill="white"/>
</svg>
