<svg width="4" height="8" viewBox="0 0 4 8" fill="none" xmlns="http://www.w3.org/2000/svg">
<path d="M0.0462589 3.82755L3.71288 0.840227C3.76008 0.801919 3.83235 0.789487 3.8955 0.80953C3.95866 0.829195 4 0.877012 4 0.930029V1.44957C4 1.4828 3.98372 1.51476 3.95442 1.53886L1.06285 3.91734L3.95441 6.29583C3.9837 6.31993 3.99998 6.35189 3.99998 6.38512V6.90466C3.99998 6.95768 3.95864 7.00549 3.89549 7.02516C3.8753 7.0315 3.85414 7.03455 3.83331 7.03455C3.78872 7.03455 3.7451 7.02059 3.71288 6.99446L0.0462589 4.00715C-0.0152712 3.95692 -0.0152712 3.87778 0.0462589 3.82755Z" fill="white"/>
</svg>
