<svg width="5" height="8" viewBox="0 0 5 8" fill="none" xmlns="http://www.w3.org/2000/svg">
<path d="M4.58289 3.82755L0.918761 0.840227C0.871591 0.801919 0.799376 0.789487 0.736263 0.80953C0.673151 0.829195 0.631836 0.877012 0.631836 0.930029V1.44957C0.631836 1.4828 0.648106 1.51476 0.677382 1.53886L3.56698 3.91734L0.677398 6.29583C0.648121 6.31993 0.631851 6.35189 0.631851 6.38512V6.90466C0.631851 6.95768 0.673167 7.00549 0.736279 7.02516C0.756452 7.0315 0.777594 7.03455 0.798408 7.03455C0.84297 7.03455 0.886565 7.02059 0.918761 6.99446L4.58289 4.00715C4.64438 3.95692 4.64438 3.87778 4.58289 3.82755Z" fill="#9D9D9D"/>
</svg>
